<mxfile host="65bd71144e">
    <diagram id="jh3ou0TTjNYkl9r0OGmB" name="Flexbox">
        <mxGraphModel dx="610" dy="430" grid="1" gridSize="10" guides="1" tooltips="1" connect="1" arrows="1" fold="1" page="1" pageScale="1" pageWidth="1169" pageHeight="827" math="0" shadow="0">
            <root>
                <mxCell id="0"/>
                <mxCell id="1" parent="0"/>
                <mxCell id="2" value="flex-direction: row;" style="whiteSpace=wrap;html=1;aspect=fixed;" parent="1" vertex="1">
                    <mxGeometry x="400" y="40" width="240" height="240" as="geometry"/>
                </mxCell>
                <mxCell id="3" value="flex-direction: column;" style="whiteSpace=wrap;html=1;aspect=fixed;" parent="1" vertex="1">
                    <mxGeometry x="40" y="40" width="240" height="240" as="geometry"/>
                </mxCell>
                <mxCell id="4" value="" style="ellipse;whiteSpace=wrap;html=1;aspect=fixed;fillColor=#3333FF;" parent="1" vertex="1">
                    <mxGeometry x="50" y="150" width="40" height="40" as="geometry"/>
                </mxCell>
                <mxCell id="10" value="" style="ellipse;whiteSpace=wrap;html=1;aspect=fixed;fillColor=#3333FF;" parent="1" vertex="1">
                    <mxGeometry x="50" y="100" width="40" height="40" as="geometry"/>
                </mxCell>
                <mxCell id="11" value="" style="ellipse;whiteSpace=wrap;html=1;aspect=fixed;fillColor=#3333FF;" parent="1" vertex="1">
                    <mxGeometry x="50" y="50" width="40" height="40" as="geometry"/>
                </mxCell>
                <mxCell id="12" value="" style="ellipse;whiteSpace=wrap;html=1;aspect=fixed;fillColor=#3333FF;" parent="1" vertex="1">
                    <mxGeometry x="510" y="50" width="40" height="40" as="geometry"/>
                </mxCell>
                <mxCell id="13" value="" style="ellipse;whiteSpace=wrap;html=1;aspect=fixed;fillColor=#3333FF;" parent="1" vertex="1">
                    <mxGeometry x="460" y="50" width="40" height="40" as="geometry"/>
                </mxCell>
                <mxCell id="14" value="" style="ellipse;whiteSpace=wrap;html=1;aspect=fixed;fillColor=#3333FF;" parent="1" vertex="1">
                    <mxGeometry x="410" y="50" width="40" height="40" as="geometry"/>
                </mxCell>
                <mxCell id="17" value="" style="shape=flexArrow;endArrow=classic;startArrow=classic;html=1;" parent="1" edge="1">
                    <mxGeometry width="100" height="100" relative="1" as="geometry">
                        <mxPoint x="260" y="240" as="sourcePoint"/>
                        <mxPoint x="260" y="100" as="targetPoint"/>
                    </mxGeometry>
                </mxCell>
                <mxCell id="18" value="justify-content" style="edgeLabel;html=1;align=center;verticalAlign=middle;resizable=0;points=[];" parent="17" vertex="1" connectable="0">
                    <mxGeometry x="0.373" y="3" relative="1" as="geometry">
                        <mxPoint as="offset"/>
                    </mxGeometry>
                </mxCell>
                <mxCell id="19" value="" style="shape=flexArrow;endArrow=classic;startArrow=classic;html=1;" parent="1" edge="1">
                    <mxGeometry width="100" height="100" relative="1" as="geometry">
                        <mxPoint x="595" y="110" as="sourcePoint"/>
                        <mxPoint x="445" y="110" as="targetPoint"/>
                    </mxGeometry>
                </mxCell>
                <mxCell id="20" value="justify-content" style="edgeLabel;html=1;align=center;verticalAlign=middle;resizable=0;points=[];" parent="19" vertex="1" connectable="0">
                    <mxGeometry x="0.373" y="3" relative="1" as="geometry">
                        <mxPoint x="28" as="offset"/>
                    </mxGeometry>
                </mxCell>
                <mxCell id="21" value="" style="shape=flexArrow;endArrow=classic;startArrow=classic;html=1;" parent="1" edge="1">
                    <mxGeometry width="100" height="100" relative="1" as="geometry">
                        <mxPoint x="235" y="260" as="sourcePoint"/>
                        <mxPoint x="85" y="260" as="targetPoint"/>
                    </mxGeometry>
                </mxCell>
                <mxCell id="22" value="align-items" style="edgeLabel;html=1;align=center;verticalAlign=middle;resizable=0;points=[];" parent="21" vertex="1" connectable="0">
                    <mxGeometry x="0.373" y="3" relative="1" as="geometry">
                        <mxPoint x="28" as="offset"/>
                    </mxGeometry>
                </mxCell>
                <mxCell id="23" value="" style="shape=flexArrow;endArrow=classic;startArrow=classic;html=1;" parent="1" edge="1">
                    <mxGeometry width="100" height="100" relative="1" as="geometry">
                        <mxPoint x="429.5" y="260" as="sourcePoint"/>
                        <mxPoint x="429.5" y="120" as="targetPoint"/>
                    </mxGeometry>
                </mxCell>
                <mxCell id="24" value="align-items" style="edgeLabel;html=1;align=center;verticalAlign=middle;resizable=0;points=[];" parent="23" vertex="1" connectable="0">
                    <mxGeometry x="0.373" y="3" relative="1" as="geometry">
                        <mxPoint x="4" y="46" as="offset"/>
                    </mxGeometry>
                </mxCell>
            </root>
        </mxGraphModel>
    </diagram>
    <diagram id="jy04VRz18PcRtHOrPETJ" name="Grid">
        <mxGraphModel dx="732" dy="494" grid="1" gridSize="20" guides="1" tooltips="1" connect="1" arrows="1" fold="1" page="1" pageScale="1" pageWidth="1169" pageHeight="827" math="0" shadow="0">
            <root>
                <mxCell id="0"/>
                <mxCell id="1" parent="0"/>
                <mxCell id="ZaV77eh2b8QtGMeRKzDB-19" value="" style="rounded=0;whiteSpace=wrap;html=1;" vertex="1" parent="1">
                    <mxGeometry x="60" y="180" width="520" height="320" as="geometry"/>
                </mxCell>
                <mxCell id="ZaV77eh2b8QtGMeRKzDB-2" value="Header" style="rounded=0;whiteSpace=wrap;html=1;" vertex="1" parent="1">
                    <mxGeometry x="80" y="60" width="480" height="80" as="geometry"/>
                </mxCell>
                <mxCell id="ZaV77eh2b8QtGMeRKzDB-3" value="Menu" style="rounded=0;whiteSpace=wrap;html=1;" vertex="1" parent="1">
                    <mxGeometry x="80" y="140" width="480" height="40" as="geometry"/>
                </mxCell>
                <mxCell id="ZaV77eh2b8QtGMeRKzDB-4" value="Produkt" style="rounded=0;whiteSpace=wrap;html=1;" vertex="1" parent="1">
                    <mxGeometry x="80" y="200" width="140" height="80" as="geometry"/>
                </mxCell>
                <mxCell id="ZaV77eh2b8QtGMeRKzDB-5" value="Produkt" style="rounded=0;whiteSpace=wrap;html=1;" vertex="1" parent="1">
                    <mxGeometry x="240" y="200" width="140" height="80" as="geometry"/>
                </mxCell>
                <mxCell id="ZaV77eh2b8QtGMeRKzDB-6" value="Produkt" style="rounded=0;whiteSpace=wrap;html=1;" vertex="1" parent="1">
                    <mxGeometry x="400" y="200" width="160" height="80" as="geometry"/>
                </mxCell>
                <mxCell id="ZaV77eh2b8QtGMeRKzDB-7" value="Produkt" style="rounded=0;whiteSpace=wrap;html=1;" vertex="1" parent="1">
                    <mxGeometry x="80" y="300" width="140" height="80" as="geometry"/>
                </mxCell>
                <mxCell id="ZaV77eh2b8QtGMeRKzDB-8" value="Produkt" style="rounded=0;whiteSpace=wrap;html=1;" vertex="1" parent="1">
                    <mxGeometry x="240" y="300" width="140" height="80" as="geometry"/>
                </mxCell>
                <mxCell id="ZaV77eh2b8QtGMeRKzDB-9" value="Produkt" style="rounded=0;whiteSpace=wrap;html=1;" vertex="1" parent="1">
                    <mxGeometry x="400" y="300" width="160" height="80" as="geometry"/>
                </mxCell>
                <mxCell id="ZaV77eh2b8QtGMeRKzDB-10" value="" style="curved=1;endArrow=classic;html=1;" edge="1" parent="1">
                    <mxGeometry width="50" height="50" relative="1" as="geometry">
                        <mxPoint x="40" y="240" as="sourcePoint"/>
                        <mxPoint x="600" y="320" as="targetPoint"/>
                        <Array as="points">
                            <mxPoint x="280" y="240"/>
                            <mxPoint x="440" y="240"/>
                            <mxPoint x="520" y="240"/>
                            <mxPoint x="-20" y="320"/>
                        </Array>
                    </mxGeometry>
                </mxCell>
                <mxCell id="ZaV77eh2b8QtGMeRKzDB-11" value="Produkt" style="rounded=0;whiteSpace=wrap;html=1;" vertex="1" parent="1">
                    <mxGeometry x="160" y="400" width="160" height="80" as="geometry"/>
                </mxCell>
                <mxCell id="ZaV77eh2b8QtGMeRKzDB-12" value="" style="endArrow=none;html=1;fillColor=#dae8fc;strokeColor=#6c8ebf;" edge="1" parent="1">
                    <mxGeometry width="50" height="50" relative="1" as="geometry">
                        <mxPoint x="160" y="40" as="sourcePoint"/>
                        <mxPoint x="160" y="500" as="targetPoint"/>
                    </mxGeometry>
                </mxCell>
                <mxCell id="ZaV77eh2b8QtGMeRKzDB-13" value="display: block" style="text;html=1;strokeColor=none;fillColor=none;align=center;verticalAlign=middle;whiteSpace=wrap;rounded=0;" vertex="1" parent="1">
                    <mxGeometry x="260" width="100" height="30" as="geometry"/>
                </mxCell>
                <mxCell id="ZaV77eh2b8QtGMeRKzDB-14" value="display: inline" style="text;html=1;strokeColor=none;fillColor=none;align=center;verticalAlign=middle;whiteSpace=wrap;rounded=0;" vertex="1" parent="1">
                    <mxGeometry x="260" y="30" width="100" height="30" as="geometry"/>
                </mxCell>
                <mxCell id="ZaV77eh2b8QtGMeRKzDB-15" value="Hallo, &lt;u&gt;hier&lt;/u&gt; &lt;b&gt;steht&lt;/b&gt; etwas." style="text;html=1;strokeColor=none;fillColor=none;align=center;verticalAlign=middle;whiteSpace=wrap;rounded=0;" vertex="1" parent="1">
                    <mxGeometry x="400" y="30" width="160" height="30" as="geometry"/>
                </mxCell>
                <mxCell id="ZaV77eh2b8QtGMeRKzDB-20" value="&lt;div style=&quot;text-align: left;&quot;&gt;&lt;span style=&quot;background-color: initial;&quot;&gt;&amp;lt;div style=&quot;display: flex;&quot;&amp;gt;&lt;/span&gt;&lt;/div&gt;&lt;div style=&quot;text-align: left;&quot;&gt;&lt;span style=&quot;background-color: initial;&quot;&gt;&amp;nbsp; &amp;nbsp; &amp;lt;div&amp;gt;Produkt&amp;lt;/div&amp;gt;&lt;/span&gt;&lt;/div&gt;&lt;div style=&quot;text-align: left;&quot;&gt;&amp;nbsp; &amp;nbsp; &amp;lt;div&amp;gt;Produkt&amp;lt;/div&amp;gt;&lt;span style=&quot;background-color: initial;&quot;&gt;&lt;br&gt;&lt;/span&gt;&lt;/div&gt;&lt;div style=&quot;text-align: left;&quot;&gt;&amp;nbsp; &amp;nbsp; &amp;lt;!-- ... --&amp;gt;&lt;/div&gt;&lt;div style=&quot;text-align: left;&quot;&gt;&amp;nbsp; &amp;nbsp; &amp;lt;div&amp;gt;Produkt&amp;lt;/div&amp;gt;&lt;br&gt;&lt;/div&gt;&lt;div style=&quot;text-align: left;&quot;&gt;&lt;span style=&quot;background-color: initial;&quot;&gt;&amp;lt;/div&amp;gt;&lt;/span&gt;&lt;/div&gt;" style="text;html=1;strokeColor=none;fillColor=none;align=center;verticalAlign=middle;whiteSpace=wrap;rounded=0;" vertex="1" parent="1">
                    <mxGeometry x="620" y="180" width="180" height="100" as="geometry"/>
                </mxCell>
            </root>
        </mxGraphModel>
    </diagram>
    <diagram id="NH75fskYLrBzxTmAS8vJ" name="Page-3">
        <mxGraphModel dx="1677" dy="358" grid="1" gridSize="10" guides="1" tooltips="1" connect="1" arrows="1" fold="1" page="1" pageScale="1" pageWidth="1169" pageHeight="827" math="0" shadow="0">
            <root>
                <mxCell id="0"/>
                <mxCell id="1" parent="0"/>
                <mxCell id="rOCJU226qsGnylHYUIeU-1" value="Meine Webseite" style="swimlane;whiteSpace=wrap;html=1;" parent="1" vertex="1">
                    <mxGeometry x="-1120" y="40" width="200" height="760" as="geometry"/>
                </mxCell>
                <mxCell id="rOCJU226qsGnylHYUIeU-2" value="Bild" style="rounded=0;whiteSpace=wrap;html=1;" parent="rOCJU226qsGnylHYUIeU-1" vertex="1">
                    <mxGeometry x="10" y="30" width="180" height="60" as="geometry"/>
                </mxCell>
                <mxCell id="rOCJU226qsGnylHYUIeU-6" value="Start" style="rounded=0;whiteSpace=wrap;html=1;" parent="rOCJU226qsGnylHYUIeU-1" vertex="1">
                    <mxGeometry x="10" y="100" width="180" height="30" as="geometry"/>
                </mxCell>
                <mxCell id="rOCJU226qsGnylHYUIeU-7" value="Blog" style="rounded=0;whiteSpace=wrap;html=1;" parent="rOCJU226qsGnylHYUIeU-1" vertex="1">
                    <mxGeometry x="10" y="140" width="180" height="30" as="geometry"/>
                </mxCell>
                <mxCell id="rOCJU226qsGnylHYUIeU-8" value="Kontakt" style="rounded=0;whiteSpace=wrap;html=1;" parent="rOCJU226qsGnylHYUIeU-1" vertex="1">
                    <mxGeometry x="10" y="180" width="180" height="30" as="geometry"/>
                </mxCell>
                <mxCell id="rOCJU226qsGnylHYUIeU-9" value="Überschrift&lt;br&gt;&lt;br&gt;Becshreibung..." style="rounded=0;whiteSpace=wrap;html=1;" parent="rOCJU226qsGnylHYUIeU-1" vertex="1">
                    <mxGeometry x="10" y="220" width="180" height="180" as="geometry"/>
                </mxCell>
                <mxCell id="rOCJU226qsGnylHYUIeU-10" value="Bewertung" style="rounded=0;whiteSpace=wrap;html=1;" parent="rOCJU226qsGnylHYUIeU-1" vertex="1">
                    <mxGeometry x="10" y="410" width="180" height="80" as="geometry"/>
                </mxCell>
                <mxCell id="rOCJU226qsGnylHYUIeU-11" value="Bewertung" style="rounded=0;whiteSpace=wrap;html=1;" parent="rOCJU226qsGnylHYUIeU-1" vertex="1">
                    <mxGeometry x="10" y="500" width="180" height="80" as="geometry"/>
                </mxCell>
                <mxCell id="rOCJU226qsGnylHYUIeU-12" value="Bewertung" style="rounded=0;whiteSpace=wrap;html=1;" parent="rOCJU226qsGnylHYUIeU-1" vertex="1">
                    <mxGeometry x="10" y="590" width="180" height="80" as="geometry"/>
                </mxCell>
                <mxCell id="rOCJU226qsGnylHYUIeU-37" value="" style="shape=flexArrow;endArrow=classic;html=1;" parent="rOCJU226qsGnylHYUIeU-1" edge="1">
                    <mxGeometry width="50" height="50" relative="1" as="geometry">
                        <mxPoint x="150" y="-20" as="sourcePoint"/>
                        <mxPoint x="940" y="-20" as="targetPoint"/>
                    </mxGeometry>
                </mxCell>
                <mxCell id="rOCJU226qsGnylHYUIeU-38" value="Mobile First" style="edgeLabel;html=1;align=center;verticalAlign=middle;resizable=0;points=[];" parent="rOCJU226qsGnylHYUIeU-37" vertex="1" connectable="0">
                    <mxGeometry x="0.2886" y="4" relative="1" as="geometry">
                        <mxPoint as="offset"/>
                    </mxGeometry>
                </mxCell>
                <mxCell id="rOCJU226qsGnylHYUIeU-13" value="Meine Webseite" style="swimlane;whiteSpace=wrap;html=1;" parent="1" vertex="1">
                    <mxGeometry x="-880" y="40" width="360" height="760" as="geometry"/>
                </mxCell>
                <mxCell id="rOCJU226qsGnylHYUIeU-14" value="Bild" style="rounded=0;whiteSpace=wrap;html=1;" parent="rOCJU226qsGnylHYUIeU-13" vertex="1">
                    <mxGeometry x="10" y="30" width="340" height="90" as="geometry"/>
                </mxCell>
                <mxCell id="rOCJU226qsGnylHYUIeU-15" value="Start" style="rounded=0;whiteSpace=wrap;html=1;" parent="rOCJU226qsGnylHYUIeU-13" vertex="1">
                    <mxGeometry x="10" y="130" width="40" height="30" as="geometry"/>
                </mxCell>
                <mxCell id="rOCJU226qsGnylHYUIeU-16" value="Blog" style="rounded=0;whiteSpace=wrap;html=1;" parent="rOCJU226qsGnylHYUIeU-13" vertex="1">
                    <mxGeometry x="60" y="130" width="50" height="30" as="geometry"/>
                </mxCell>
                <mxCell id="rOCJU226qsGnylHYUIeU-17" value="Kontakt" style="rounded=0;whiteSpace=wrap;html=1;" parent="rOCJU226qsGnylHYUIeU-13" vertex="1">
                    <mxGeometry x="120" y="130" width="60" height="30" as="geometry"/>
                </mxCell>
                <mxCell id="rOCJU226qsGnylHYUIeU-21" value="Überschrift&lt;br&gt;&lt;br&gt;Becshreibung..." style="rounded=0;whiteSpace=wrap;html=1;" parent="rOCJU226qsGnylHYUIeU-13" vertex="1">
                    <mxGeometry x="10" y="170" width="340" height="110" as="geometry"/>
                </mxCell>
                <mxCell id="rOCJU226qsGnylHYUIeU-22" value="Bewertung" style="rounded=0;whiteSpace=wrap;html=1;" parent="rOCJU226qsGnylHYUIeU-13" vertex="1">
                    <mxGeometry x="10" y="290" width="160" height="80" as="geometry"/>
                </mxCell>
                <mxCell id="rOCJU226qsGnylHYUIeU-23" value="Bewertung" style="rounded=0;whiteSpace=wrap;html=1;" parent="rOCJU226qsGnylHYUIeU-13" vertex="1">
                    <mxGeometry x="190" y="290" width="160" height="80" as="geometry"/>
                </mxCell>
                <mxCell id="rOCJU226qsGnylHYUIeU-24" value="Bewertung" style="rounded=0;whiteSpace=wrap;html=1;" parent="rOCJU226qsGnylHYUIeU-13" vertex="1">
                    <mxGeometry x="10" y="380" width="160" height="80" as="geometry"/>
                </mxCell>
                <mxCell id="rOCJU226qsGnylHYUIeU-25" value="Bewertung" style="rounded=0;whiteSpace=wrap;html=1;" parent="rOCJU226qsGnylHYUIeU-13" vertex="1">
                    <mxGeometry x="190" y="380" width="160" height="80" as="geometry"/>
                </mxCell>
                <mxCell id="rOCJU226qsGnylHYUIeU-26" value="Meine Webseite" style="swimlane;whiteSpace=wrap;html=1;" parent="1" vertex="1">
                    <mxGeometry x="-480" y="40" width="440" height="760" as="geometry"/>
                </mxCell>
                <mxCell id="rOCJU226qsGnylHYUIeU-27" value="Bild" style="rounded=0;whiteSpace=wrap;html=1;" parent="rOCJU226qsGnylHYUIeU-26" vertex="1">
                    <mxGeometry x="10" y="30" width="420" height="90" as="geometry"/>
                </mxCell>
                <mxCell id="rOCJU226qsGnylHYUIeU-28" value="Start" style="rounded=0;whiteSpace=wrap;html=1;" parent="rOCJU226qsGnylHYUIeU-26" vertex="1">
                    <mxGeometry x="10" y="130" width="40" height="30" as="geometry"/>
                </mxCell>
                <mxCell id="rOCJU226qsGnylHYUIeU-29" value="Blog" style="rounded=0;whiteSpace=wrap;html=1;" parent="rOCJU226qsGnylHYUIeU-26" vertex="1">
                    <mxGeometry x="60" y="130" width="50" height="30" as="geometry"/>
                </mxCell>
                <mxCell id="rOCJU226qsGnylHYUIeU-30" value="Kontakt" style="rounded=0;whiteSpace=wrap;html=1;" parent="rOCJU226qsGnylHYUIeU-26" vertex="1">
                    <mxGeometry x="120" y="130" width="60" height="30" as="geometry"/>
                </mxCell>
                <mxCell id="rOCJU226qsGnylHYUIeU-31" value="Überschrift&lt;br&gt;&lt;br&gt;Becshreibung..." style="rounded=0;whiteSpace=wrap;html=1;" parent="rOCJU226qsGnylHYUIeU-26" vertex="1">
                    <mxGeometry x="10" y="170" width="420" height="70" as="geometry"/>
                </mxCell>
                <mxCell id="rOCJU226qsGnylHYUIeU-32" value="Bewertung" style="rounded=0;whiteSpace=wrap;html=1;" parent="rOCJU226qsGnylHYUIeU-26" vertex="1">
                    <mxGeometry x="10" y="250" width="130" height="80" as="geometry"/>
                </mxCell>
                <mxCell id="rOCJU226qsGnylHYUIeU-33" value="Bewertung" style="rounded=0;whiteSpace=wrap;html=1;" parent="rOCJU226qsGnylHYUIeU-26" vertex="1">
                    <mxGeometry x="160" y="250" width="120" height="80" as="geometry"/>
                </mxCell>
                <mxCell id="rOCJU226qsGnylHYUIeU-36" value="Bewertung" style="rounded=0;whiteSpace=wrap;html=1;" parent="rOCJU226qsGnylHYUIeU-26" vertex="1">
                    <mxGeometry x="310" y="250" width="120" height="80" as="geometry"/>
                </mxCell>
            </root>
        </mxGraphModel>
    </diagram>
</mxfile>